<svg width="601" height="248" xmlns="http://www.w3.org/2000/svg">
 <defs>
  <clipPath id="clip0">
   <rect id="svg_1" fill="white" height="248" width="601"/>
  </clipPath>
 </defs>
 <g>
  <title>background</title>
  <rect fill="none" id="canvas_background" height="402" width="582" y="-1" x="-1"/>
 </g>
 <g>
  <title>Layer 1</title>
  <g id="svg_2" clip-path="url(#clip0)">
   <path stroke="#110f0f" id="svg_3" fill-opacity="0.6" fill="#1c1919" d="m-44,250.791c18.3663,-34.776 73.5688,-102.233 147.448,-93.846c92.349,10.483 193.234,64.893 256.87,32.447c47.108,-24.021 52.538,40.595 82.721,61.399l43.773,0c75.277,-35.442 104.766,-38.936 149.777,-19.468c36.008,15.574 110.715,-31.116 143.567,-56.408c16.815,-11.98 52.305,-32.347 59.755,-17.97c7.451,14.376 9.83,68.554 10.089,93.846l-363.188,0c-19.549,9.204 -33.184,7.298 -43.773,0l-487.039,0z"/>
   <path stroke="#110f0f" id="svg_4" fill-opacity="0.6" fill="#1c1919" d="m512.23,145.313c48.18,4.963 88.588,40.938 102.77,58.306l0,48.381l-662.4788,0l-26.5212,-36.596c12.8923,-6.616 42.655,-25.183 58.5677,-46.52c19.89098,-26.672 75.1436,46.52 109.4003,61.407c34.257,14.886 48.622,-37.837 87.852,-68.23c39.229,-30.394 95.034,41.558 140.341,53.343c45.307,11.785 129.844,-76.293 190.069,-70.091z"/>
  </g>
 </g>
</svg>